<?xml version="1.0" encoding="UTF-8"?>
<svg version="1.1" xmlns="http://www.w3.org/2000/svg" width="1440" height="1440">
<path d="M0 0 C2.81174473 1.44030427 5.63345743 2.86040795 8.45410156 4.28320312 C24.17953124 12.26820147 39.37473388 20.89018146 54.35253906 30.20507812 C55.32626465 30.80884277 56.29999023 31.41260742 57.30322266 32.03466797 C73.88170144 42.34849382 89.82801394 53.36498912 105.35253906 65.20507812 C106.72875603 66.24815918 108.10506443 67.29111961 109.48144531 68.33398438 C126.0507011 80.91492412 141.98219485 94.18385504 157.35253906 108.20507812 C158.31933594 109.0790625 159.28613281 109.95304688 160.28222656 110.85351562 C166.05402472 116.08786636 171.66033909 121.42814854 177.09863281 127.01367188 C179.33903223 129.2638978 179.33903223 129.2638978 181.94628906 131.27148438 C184.07442277 132.98159182 185.69054279 134.60809066 187.41503906 136.70507812 C190.55950286 140.39311444 193.90539146 143.80475809 197.35253906 147.20507812 C201.28008685 151.0891876 205.06962597 155.01615476 208.65332031 159.22460938 C210.63284338 161.53177764 212.67896026 163.77154595 214.72753906 166.01757812 C219.45869251 171.26645039 223.91130692 176.71069889 228.35253906 182.20507812 C229.36336674 183.436279 230.37513956 184.66670431 231.38769531 185.89648438 C264.81575948 226.58603782 292.67323805 271.22829593 316.35253906 318.20507812 C316.93825684 319.36571777 317.52397461 320.52635742 318.12744141 321.72216797 C353.51309264 392.28825125 375.91035992 469.96172769 387.04003906 569.89257812 C387.10106812 570.5749353 387.16209717 571.25729248 387.22497559 571.96032715 C388.94781925 591.51632204 389.59069828 611.01160968 389.60253906 630.64257812 C389.60354614 631.81338928 389.60455322 632.98420044 389.60559082 634.19049072 C389.55688808 718.794317 374.35874195 803.20244708 222.75732422 1088.56201172 C221.33654724 1090.2237825 219.92751153 1091.8949179 218.52050781 1093.56835938 C208.56829049 1105.36103226 198.0667151 1116.63981489 187.06347656 1127.45898438 C185.21485552 1129.2821115 185.21485552 1129.2821115 183.29003906 1131.83007812 C181.02722076 1134.6038554 178.47727874 1136.73491762 175.75878906 1139.05273438 C172.84097594 1141.66266137 170.10084143 1144.41892746 167.35253906 1147.20507812 C163.46842959 1151.13262592 159.54146243 1154.92216503 155.33300781 1158.50585938 C153.02583954 1160.48538245 150.78607124 1162.53149933 148.54003906 1164.58007812 C143.80922749 1168.84426944 138.93343087 1172.89354294 133.97607422 1176.890625 C132.15124786 1178.36804833 130.33560603 1179.85634581 128.52050781 1181.34570312 C120.60449467 1187.8314323 112.61674165 1194.16469732 104.35253906 1200.20507812 C103.39903564 1200.90769775 103.39903564 1200.90769775 102.42626953 1201.62451172 C26.2145008 1257.74001617 -60.61173979 1298.248844 -258.64746094 1337.20507812 C-260.42878418 1337.35952393 -260.42878418 1337.35952393 -262.24609375 1337.51708984 C-316.96353899 1342.09980258 -372.42977521 1339.64715455 -426.64746094 1331.20507812 C-427.37239746 1331.09228516 -428.09733398 1330.97949219 -428.84423828 1330.86328125 C-511.00255824 1317.97136823 -591.23207494 1290.48892312 -712.64746094 1219.20507812 C-713.4325 1218.66351074 -714.21753906 1218.12194336 -715.02636719 1217.56396484 C-725.04808638 1210.63482579 -734.97807022 1203.62008842 -744.64746094 1196.20507812 C-745.68902344 1195.41875 -746.73058594 1194.63242188 -747.80371094 1193.82226562 C-754.56028114 1188.70359064 -761.08789748 1183.36971703 -767.52636719 1177.85742188 C-770.37857962 1175.41956594 -773.28693846 1173.05775475 -776.20996094 1170.70507812 C-781.59376554 1166.32000829 -786.69909415 1161.671133 -791.77319336 1156.93579102 C-793.21471758 1155.60467662 -794.66760137 1154.28585611 -796.12524414 1152.97241211 C-804.27268481 1145.60085243 -812.08332463 1137.92297908 -819.84008789 1130.14282227 C-821.97070728 1128.00680455 -824.10667317 1125.87623694 -826.24316406 1123.74609375 C-827.62434443 1122.36425306 -829.00521483 1120.98210246 -830.38574219 1119.59960938 C-831.01192947 1118.97544632 -831.63811676 1118.35128326 -832.28327942 1117.70820618 C-844.08131517 1105.84833285 -844.08131517 1105.84833285 -846.64746094 1100.20507812 C-847.30746094 1100.20507812 -847.96746094 1100.20507812 -848.64746094 1100.20507812 C-850.02237392 1098.69720652 -851.32110556 1097.11968052 -852.58496094 1095.51757812 C-855.52095982 1091.84172625 -858.47763742 1088.21011914 -861.54980469 1084.64599609 C-868.03041887 1077.11580418 -874.06244398 1069.27271573 -880.03759766 1061.33837891 C-881.57811936 1059.2969657 -883.12886991 1057.26377822 -884.68261719 1055.23242188 C-923.56825181 1004.18943942 -954.29040802 946.85321125 -977.64746094 887.20507812 C-978.06479492 886.15288086 -978.48212891 885.10068359 -978.91210938 884.01660156 C-998.67780478 834.0639011 -1011.22973785 781.33221321 -1018.64746094 728.20507812 C-1018.79521973 727.18961914 -1018.94297852 726.17416016 -1019.09521484 725.12792969 C-1032.53536371 631.85234892 -1024.96045997 533.56839617 -904.64746094 237.20507812 C-904.10589355 236.42003906 -903.56432617 235.635 -903.00634766 234.82617188 C-896.07723791 224.80449507 -889.06303314 214.874001 -881.64746094 205.20507812 C-880.8959375 204.20992188 -880.14441406 203.21476562 -879.37011719 202.18945312 C-859.67009623 176.26333154 -837.89944588 152.25811874 -814.85620117 129.28344727 C-812.68321759 127.1159017 -810.51573731 124.94295312 -808.34863281 122.76953125 C-806.93944865 121.36100685 -805.52995488 119.95279213 -804.12011719 118.54492188 C-803.48662857 117.90940903 -802.85313995 117.27389618 -802.20045471 116.61912537 C-798.38790176 112.82622006 -794.45962402 109.21877723 -790.38690186 105.70640564 C-788.16497471 103.78863981 -786.00115938 101.81038563 -783.83496094 99.83007812 C-778.58890778 95.0974002 -773.13983069 90.64686801 -767.64746094 86.20507812 C-765.85557094 84.72618201 -764.06390494 83.24701446 -762.27246094 81.76757812 C-725.05660711 51.35178824 -684.23710519 25.38041929 -641.64746094 3.20507812 C-639.99520508 2.34100342 -639.99520508 2.34100342 -638.30957031 1.45947266 C-611.97440925 -12.23924359 -584.65741417 -23.95852838 -556.64746094 -33.79492188 C-555.70247742 -34.12753021 -555.70247742 -34.12753021 -554.73840332 -34.46685791 C-497.0326659 -54.73623797 -437.62731046 -67.66977387 -376.64746094 -72.79492188 C-374.93067139 -72.94936768 -374.93067139 -72.94936768 -373.17919922 -73.10693359 C-282.91561975 -81.01514755 -189.30244737 -69.94453772 0 0 Z M-386.64746094 9.20507812 C-387.39417053 9.29229126 -388.14088013 9.37950439 -388.91021729 9.46936035 C-405.80162693 11.4572151 -422.5792112 14.00663596 -439.27246094 17.26757812 C-440.48095703 17.50065674 -441.68945312 17.73373535 -442.93457031 17.97387695 C-454.29115455 20.29791389 -463.85319701 23.23572478 -471.64746094 32.20507812 C-476.77446399 39.99252183 -478.80105813 45.93675269 -478.7762621 55.19243968 C-478.77803711 56.00878968 -478.77981212 56.82513968 -478.78164092 57.66622757 C-478.78640348 60.42472145 -478.78400246 63.18316355 -478.78168201 65.94165993 C-478.78363402 67.93864688 -478.78602251 69.93563344 -478.78880998 71.93261939 C-478.795232 77.45875063 -478.79536986 82.98486737 -478.79453258 88.51100163 C-478.79470164 94.50852195 -478.80060289 100.506037 -478.80577344 106.5035547 C-478.81402721 117.02788638 -478.81852607 127.55221521 -478.82049942 138.07654953 C-478.82262675 149.37245623 -478.82688382 160.66835906 -478.83374214 171.96426392 C-478.83417276 172.67700466 -478.83460337 173.38974541 -478.83504703 174.12408436 C-478.83680535 177.0268484 -478.83857499 179.92961243 -478.84036005 182.83237646 C-478.86196747 218.03764309 -478.8728398 253.24291049 -478.88183629 288.44818224 C-478.88476959 299.862931 -478.88813939 311.27767957 -478.8918035 322.69242811 C-478.89206179 323.49753104 -478.89232009 324.30263397 -478.8925862 325.13213396 C-478.89363241 328.3891978 -478.89468083 331.64626164 -478.89573202 334.90332548 C-478.91369695 390.61549251 -478.92907677 446.32765985 -478.93649106 502.03982937 C-478.93707503 506.4165777 -478.9376723 510.79332603 -478.93826867 515.17007437 C-478.93838679 516.03829031 -478.93850491 516.90650626 -478.93862661 517.80103179 C-478.93982401 526.59741513 -478.94103277 535.39379847 -478.94225914 544.1901818 C-478.94250438 545.953895 -478.94274823 547.71760819 -478.94299071 549.48132139 C-478.95078151 606.1330139 -478.97316711 662.7846857 -479.00566714 719.43636915 C-479.02900901 760.13793432 -479.0505627 800.83949538 -479.05767345 841.54106712 C-479.05782048 842.37790567 -479.0579675 843.21474421 -479.05811897 844.0769415 C-479.06130362 862.44664203 -479.06335463 880.81634252 -479.06434652 899.1860433 C-479.06476127 906.57706613 -479.06531617 913.96808896 -479.06590843 921.35911179 C-479.0659691 922.16802231 -479.06602977 922.97693283 -479.06609228 923.8103558 C-479.06810917 949.8788893 -479.08235425 975.94739838 -479.10285343 1002.01592336 C-479.12342508 1028.26966363 -479.13133332 1054.52337565 -479.12177567 1080.77712317 C-479.12045719 1084.40391073 -479.11927915 1088.03069833 -479.11818504 1091.65748596 C-479.1179652 1092.36844538 -479.11774535 1093.0794048 -479.11751884 1093.81190844 C-479.11440286 1105.07556292 -479.12473742 1116.33916341 -479.14066059 1127.60280538 C-479.15603459 1138.67486499 -479.15683962 1149.74686443 -479.14311236 1160.81893063 C-479.13618207 1166.7432933 -479.13566063 1172.66746984 -479.15267245 1178.59181626 C-479.16801677 1183.97917519 -479.16501851 1189.36619748 -479.14726217 1194.75354616 C-479.14410696 1196.69248966 -479.14768589 1198.63145853 -479.15875391 1200.57037301 C-479.23092825 1214.09263971 -478.26467364 1224.82743465 -468.64746094 1235.20507812 C-459.1933136 1244.3624585 -445.69223798 1246.04160488 -433.20996094 1248.20507812 C-432.49270844 1248.3316983 -431.77545593 1248.45831848 -431.03646851 1248.58877563 C-416.29122942 1251.18975403 -401.52673503 1253.5068075 -386.64746094 1255.20507812 C-385.34631348 1255.35605957 -384.04516602 1255.50704102 -382.70458984 1255.66259766 C-338.42702867 1260.64121897 -291.88702568 1260.44553287 -247.64746094 1255.20507812 C-246.90075134 1255.11786499 -246.15404175 1255.03065186 -245.38470459 1254.9407959 C-160.76076614 1244.9818818 -78.23714697 1218.31794102 -4.64746094 1175.20507812 C-3.07891319 1174.29802757 -1.50992323 1173.39174116 0.05957031 1172.48632812 C28.03728965 1156.27750395 54.70299406 1137.64938074 79.43164062 1116.82177734 C81.23007958 1115.30814456 83.03604292 1113.80409727 84.84472656 1112.30273438 C91.4081503 1106.83175929 97.74964984 1101.15925164 103.98925781 1095.32226562 C106.63724117 1092.84695002 109.33865695 1090.43738056 112.04785156 1088.02929688 C117.23624568 1083.36865995 122.20193565 1078.50817215 127.12182617 1073.56616211 C128.54591398 1072.13668096 129.9753195 1070.71267301 131.40527344 1069.2890625 C136.04636037 1064.64150715 140.56431788 1059.95077644 144.83911133 1054.96362305 C147.06727109 1052.37458695 149.39935621 1049.89205371 151.72753906 1047.39257812 C156.84254112 1041.84847985 161.63978628 1036.09601911 166.35253906 1030.20507812 C167.26329925 1029.08601999 168.17479383 1027.96755925 169.08691406 1026.84960938 C204.97219521 982.7030553 234.69339254 933.37143088 257.35253906 881.20507812 C257.78453613 880.21556152 258.2165332 879.22604492 258.66162109 878.20654297 C289.45207461 807.00005946 308.26694625 727.06226397 308.55566406 649.25976562 C308.56263306 647.98230972 308.56960205 646.70485382 308.57678223 645.38868713 C308.59604832 641.28581304 308.60095938 637.18299253 308.60253906 633.08007812 C308.6031282 632.37991199 308.60371735 631.67974586 308.60432434 630.95836258 C308.617801 608.24657458 307.99264767 585.7797137 305.35253906 563.20507812 C305.21332031 561.94324707 305.07410156 560.68141602 304.93066406 559.38134766 C299.94630385 514.88554871 289.49100985 471.62049048 275.35253906 429.20507812 C275.03286163 428.24604584 275.03286163 428.24604584 274.70672607 427.26763916 C270.0262383 413.284392 264.82437819 399.54161174 259.10253906 385.95507812 C258.37756226 384.2139978 258.37756226 384.2139978 257.63793945 382.43774414 C252.70460554 370.98406478 246.09986376 360.71150987 234.16503906 355.76757812 C223.94259185 352.50148503 213.87849956 353.30435568 204.35253906 358.20507812 C192.17041537 365.63367172 187.98434744 376.9047606 183.34951782 389.74255371 C182.05739981 393.32036312 180.73855056 396.88815288 179.42167664 400.45690918 C178.73734565 402.31229958 178.05434222 404.16818014 177.37263489 406.02453613 C174.06070961 415.03671494 170.62628767 423.9994089 167.16503906 432.95507812 C166.55072355 434.54787931 165.93654916 436.14073493 165.32250977 437.73364258 C164.03135913 441.0823251 162.73936798 444.43068166 161.44677734 447.77880859 C157.49250395 458.02267839 153.54657817 468.26976431 149.60253906 478.51757812 C149.18068329 479.61359344 148.75882751 480.70960876 148.32418823 481.83883667 C141.68627072 499.08939786 135.09971436 516.35901067 128.54263306 533.64044189 C122.81576286 548.73373277 117.06719731 563.81846081 111.29003906 578.89257812 C110.91938324 579.85974762 110.54872742 580.82691711 110.1668396 581.82339478 C108.30275742 586.68696063 106.43815816 591.55032802 104.57324219 596.41357422 C100.89337877 606.0099264 97.21632451 615.60735476 93.54003906 625.20507812 C92.99127609 626.63772003 92.99127609 626.63772003 92.431427 628.0993042 C81.25739136 657.27358855 70.10576493 686.45655285 58.99316406 715.65429688 C58.48468178 716.99028931 58.48468178 716.99028931 57.96592712 718.35327148 C57.46591942 719.66702759 57.46591942 719.66702759 56.95581055 721.00732422 C51.08787809 736.42512801 45.19638596 751.8334051 39.26559448 767.22714233 C32.45034983 784.91881609 25.69117201 802.63183088 18.93579102 820.34643555 C14.341592 832.39150448 9.73139468 844.43019577 5.09968567 856.46089172 C0.4532662 868.53374794 -4.16039559 880.61906534 -8.77246094 892.70507812 C-9.68520747 895.09619671 -10.59796811 897.4873099 -11.51074219 899.87841797 C-17.87672469 916.55661892 -24.23550389 933.23756139 -30.58544922 949.921875 C-30.88983917 950.72135559 -31.19422913 951.52083618 -31.50784302 952.34454346 C-32.08903068 953.87136976 -32.66983753 955.39834109 -33.25021362 956.92547607 C-34.54982198 960.34159223 -35.85804689 963.75374585 -37.19042969 967.15722656 C-37.650625 968.33575195 -38.11082031 969.51427734 -38.58496094 970.72851562 C-38.98585938 971.74606934 -39.38675781 972.76362305 -39.79980469 973.81201172 C-40.75875637 976.09615638 -40.75875637 976.09615638 -40.64746094 978.20507812 C-117.20746094 978.20507812 -193.76746094 978.20507812 -272.64746094 978.20507812 C-265.71746094 960.38507813 -265.71746094 960.38507813 -258.64746094 942.20507812 C-255.67836514 934.45807631 -252.71066596 926.71102155 -249.7600708 918.95703125 C-247.54332342 913.13228892 -245.32194691 907.30931224 -243.10058594 901.48632812 C-242.64845734 900.30103516 -242.19632874 899.11574219 -241.73049927 897.89453125 C-236.93291323 885.32301049 -232.10584165 872.76287283 -227.27246094 860.20507812 C-226.85422058 859.11839844 -226.43598022 858.03171875 -226.00506592 856.91210938 C-223.96867103 851.62157146 -221.93177133 846.33122813 -219.89453125 841.04101562 C-216.94088216 833.37076698 -213.9905944 825.69922651 -211.04055786 818.02758789 C-209.54115509 814.12837216 -208.04160055 810.2292148 -206.54199219 806.33007812 C-206.2364592 805.53565308 -205.93092621 804.74122803 -205.61613464 803.92272949 C-203.45946861 798.31544628 -201.30195641 792.70848904 -199.14416504 787.10163879 C-187.61637832 757.14714022 -176.11855415 727.18132977 -164.64746094 697.20507812 C-161.68964416 689.47571367 -158.73148201 681.74648163 -155.77246094 674.01757812 C-155.40425232 673.05580658 -155.0360437 672.09403503 -154.65667725 671.1031189 C-148.24670849 654.36221032 -141.8143153 637.62997399 -135.37548828 620.90014648 C-129.1244964 604.65789385 -122.89396254 588.40794056 -116.67672729 572.15274048 C-110.85471326 556.93403482 -104.99249041 541.73111404 -99.11721802 526.53289795 C-91.23232824 506.13611262 -83.40240862 485.71995886 -75.65206909 465.27166748 C-69.90420117 450.1088876 -64.09738329 434.97029116 -58.23886108 419.84994507 C-51.70611076 402.98649457 -45.25121201 386.09388234 -38.80960083 369.19543457 C-31.97320286 351.26392974 -25.09057482 333.35095968 -18.15136719 315.45898438 C-15.13693195 307.68368432 -12.13175308 299.90479327 -9.17480469 292.10742188 C-8.91760147 291.43602676 -8.66039825 290.76463165 -8.395401 290.07289124 C-7.07984902 286.73200218 -7.07984902 286.73200218 -6.64746094 283.20507812 C-5.91969515 283.2078435 -5.19192936 283.21060888 -4.44211006 283.21345806 C13.29492618 283.27981305 31.03193754 283.32940493 48.76907158 283.36051464 C57.34674421 283.3759603 65.9243338 283.39700565 74.50195312 283.43139648 C81.98128318 283.46136948 89.46055308 283.48066984 96.93994153 283.48734361 C100.89744399 283.49124253 104.8547744 283.50035713 108.81222153 283.5222683 C112.54356318 283.54275855 116.27466326 283.54888685 120.00605583 283.54440117 C122.01519236 283.54560912 124.0243031 283.56168522 126.03337097 283.57833862 C138.50048047 283.53609087 148.04460096 280.92087104 157.32910156 272.38867188 C164.59313174 264.73825711 167.47551653 255.67353505 167.35253906 245.20507812 C166.26711795 233.4011235 159.16337659 225.52028038 151.35253906 217.20507812 C150.2837238 215.98139889 149.2208595 214.75248709 148.16503906 213.51757812 C139.15415333 203.21649739 129.63790283 193.39488606 119.97753906 183.70507812 C119.14585205 182.86879883 118.31416504 182.03251953 117.45727539 181.17089844 C113.14970608 176.87410128 108.77070542 172.73122732 104.15722656 168.76464844 C101.55638623 166.51706077 99.05535719 164.1730178 96.54003906 161.83007812 C91.94829225 157.59321396 87.24299792 153.5510193 82.37207031 149.63476562 C80.14586746 147.84343552 77.9376579 146.0376951 75.73925781 144.21289062 C65.91955366 136.0915164 55.78000531 128.52683656 45.35253906 121.20507812 C44.66659668 120.72296875 43.9806543 120.24085938 43.27392578 119.74414062 C26.90872347 108.28256242 10.09812181 97.69643219 -7.16943359 87.64746094 C-9.31504775 86.39856553 -11.45642834 85.14281444 -13.59667969 83.88476562 C-22.10272183 78.93826449 -30.78813423 74.47214717 -39.64746094 70.20507812 C-41.18635986 69.45846924 -41.18635986 69.45846924 -42.75634766 68.69677734 C-107.42519415 37.44771183 -176.29629501 17.44347053 -247.64746094 9.20507812 C-248.35660645 9.12151062 -249.06575195 9.03794312 -249.79638672 8.95184326 C-294.634059 3.71431701 -341.82860692 3.89600292 -386.64746094 9.20507812 Z M-742.30761719 171.85742188 C-743.64746094 173.20507812 -743.64746094 173.20507812 -745.64746094 174.20507812 C-745.64746094 174.86507812 -745.64746094 175.52507812 -745.64746094 176.20507812 C-746.20071045 176.43308105 -746.75395996 176.66108398 -747.32397461 176.89599609 C-750.31988994 178.58393326 -752.39688616 180.71293348 -754.82324219 183.15039062 C-755.31148972 183.63909637 -755.79973724 184.12780212 -756.30278015 184.63131714 C-757.33468292 185.66623479 -758.36416037 186.70357564 -759.39135742 187.74316406 C-760.93920986 189.30908482 -762.49472444 190.86704171 -764.05175781 192.42382812 C-768.89650338 197.28602357 -773.6361335 202.20031139 -778.10229492 207.41699219 C-780.65225188 210.3678351 -783.34708724 213.18092884 -786.02246094 216.01757812 C-790.63671277 220.95409099 -795.06474707 225.97668579 -799.28808594 231.25585938 C-801.05060389 233.45900681 -802.82997852 235.64002443 -804.63183594 237.81054688 C-812.17538297 246.92847896 -819.23200016 256.31470048 -826.06542969 265.97460938 C-827.60309529 268.14252804 -829.15453745 270.29987694 -830.70996094 272.45507812 C-849.4652617 298.55126141 -865.23225218 326.51897764 -879.64746094 355.20507812 C-880.19789063 356.29127441 -880.74832031 357.3774707 -881.31542969 358.49658203 C-916.86146937 428.94486435 -936.65649101 507.71787579 -942.64746094 586.20507812 C-942.74172363 587.33494141 -942.83598633 588.46480469 -942.93310547 589.62890625 C-943.95411522 603.34221786 -943.89023247 617.08557205 -943.89746094 630.83007812 C-943.89805008 631.49236671 -943.89863922 632.1546553 -943.89924622 632.83701324 C-943.91339051 655.41292294 -943.19776812 677.76196505 -940.64746094 700.20507812 C-940.5029248 701.50815918 -940.35838867 702.81124023 -940.20947266 704.15380859 C-939.213923 712.86900243 -938.00918637 721.53986288 -936.64746094 730.20507812 C-936.348479 732.10990967 -936.348479 732.10990967 -936.04345703 734.05322266 C-923.5171142 811.80526441 -895.8008515 888.02216803 -854.64746094 955.20507812 C-853.72320313 956.72415771 -853.72320313 956.72415771 -852.78027344 958.27392578 C-845.31849499 970.5078161 -837.63630611 982.52258081 -829.18505859 994.09814453 C-827.54193015 996.34968446 -825.91324155 998.61131256 -824.28417969 1000.87304688 C-813.98360436 1015.09346325 -802.89116695 1028.57912992 -791.37744141 1041.8293457 C-789.3036799 1044.22273085 -787.40733298 1046.56527006 -785.64746094 1049.20507812 C-784.98746094 1049.20507812 -784.32746094 1049.20507812 -783.64746094 1049.20507812 C-783.39351562 1049.78773438 -783.13957031 1050.37039063 -782.87792969 1050.97070312 C-781.51425761 1053.44695845 -780.0052089 1055.01028438 -777.95996094 1056.95507812 C-775.29884358 1059.49353877 -772.83345777 1062.11921182 -770.43652344 1064.90429688 C-766.39392772 1069.56321123 -762.08114194 1073.91852968 -757.70996094 1078.26757812 C-756.95005859 1079.03134766 -756.19015625 1079.79511719 -755.40722656 1080.58203125 C-751.17483637 1084.80719276 -746.85881547 1088.86574753 -742.31079102 1092.75 C-740.90359629 1093.98101139 -739.57722277 1095.30348045 -738.27246094 1096.64257812 C-736.78290593 1098.43611436 -736.78290593 1098.43611436 -734.64746094 1098.20507812 C-734.64746094 1098.86507812 -734.64746094 1099.52507813 -734.64746094 1100.20507812 C-727.90322031 1106.18330624 -719.4226109 1109.21882313 -710.45996094 1109.51757812 C-700.16232112 1108.67350929 -690.71759641 1104.97063675 -683.64746094 1097.20507812 C-678.34722356 1089.8334836 -675.39927022 1082.79642176 -675.39446127 1073.60316777 C-675.38618204 1071.65728619 -675.38618204 1071.65728619 -675.37773556 1069.67209387 C-675.38171081 1068.24183064 -675.38586972 1066.81156792 -675.39019203 1065.38130569 C-675.38749791 1063.84841087 -675.38392966 1062.31551738 -675.37956756 1060.78262639 C-675.37010223 1056.55902368 -675.37311259 1052.33550713 -675.37812311 1048.11190015 C-675.38138638 1043.52113303 -675.37310999 1038.93038445 -675.36630476 1034.33962321 C-675.35598933 1026.28984658 -675.35316364 1018.24009401 -675.35521698 1010.19031143 C-675.35826295 998.21995485 -675.34995196 986.24962495 -675.33946773 974.27927354 C-675.32010869 951.65775562 -675.3144988 929.03624675 -675.31335361 906.41472152 C-675.31243515 888.94787379 -675.3083217 871.48102962 -675.30195236 854.01418304 C-675.30015732 848.98955687 -675.2983777 843.9649307 -675.29660261 838.94030452 C-675.29616051 837.69123034 -675.29571841 836.44215616 -675.29526292 835.15523124 C-675.2829516 800.01295873 -675.27505031 764.87068738 -675.27594948 729.72841263 C-675.27598103 728.38962144 -675.27601251 727.05083025 -675.27604389 725.71203906 C-675.27619066 719.66750017 -675.276367 713.62296129 -675.27655166 707.57842241 C-675.27663391 704.88300591 -675.2767142 702.18758942 -675.27679429 699.49217292 C-675.27683508 698.14306835 -675.27687712 696.79396377 -675.27692041 695.4448592 C-675.27828092 652.78418884 -675.26364608 610.12355168 -675.23583984 567.46289062 C-675.22883781 556.71443313 -675.22189889 545.96597561 -675.21531105 535.21751785 C-675.21470243 534.22478132 -675.21470243 534.22478132 -675.21408151 533.21198949 C-675.19230605 497.47762443 -675.18835686 461.74325804 -675.18976629 426.00888705 C-675.18991555 420.98300346 -675.19001296 415.95711986 -675.19007492 410.93123627 C-675.19009823 409.69370059 -675.19012154 408.45616492 -675.19014555 407.18112816 C-675.19020715 387.2489807 -675.17742474 367.31686124 -675.16021039 347.38472211 C-675.14327305 327.35942478 -675.14126518 307.33416849 -675.15442903 287.30886796 C-675.16183079 275.40677534 -675.15812364 263.50480723 -675.13854435 251.60272775 C-675.12657343 243.65533418 -675.1291032 235.7080311 -675.14348535 227.76064174 C-675.15127276 223.23053002 -675.15273009 218.7006598 -675.13657065 214.1705648 C-675.12199058 210.04716617 -675.1259114 205.9242097 -675.14441838 201.8008306 C-675.14785349 200.3205802 -675.14462865 198.84029499 -675.13381597 197.36008009 C-675.05193798 185.34394933 -676.78884244 175.59893258 -684.66699219 166.20898438 C-691.66318792 159.12999343 -700.14521354 155.16559702 -710.08496094 154.83007812 C-723.63215978 155.31996292 -733.24332699 162.12826932 -742.30761719 171.85742188 Z " fill="#FD1E1B" transform="translate(1037.6474609375,87.794921875)"/>
<path d="M0 0 C69.3 0 138.6 0 210 0 C210 24.42 210 48.84 210 74 C140.7 74 71.4 74 0 74 C0 49.58 0 25.16 0 0 Z " fill="#FD1E1B" transform="translate(615,683)"/>
</svg>
